<?xml version="1.0" standalone="no"?>
<!DOCTYPE svg PUBLIC "-//W3C//DTD SVG 20010904//EN"
 "http://www.w3.org/TR/2001/REC-SVG-20010904/DTD/svg10.dtd">
<svg version="1.0" xmlns="http://www.w3.org/2000/svg"
 width="500.000000pt" height="500.000000pt" viewBox="0 0 500.000000 500.000000"
 preserveAspectRatio="xMidYMid meet">

<g transform="translate(0.000000,500.000000) scale(0.100000,-0.100000)"
fill="#000000" stroke="none">
<path d="M2305 3732 c-49 -27 -65 -42 -118 -113 l-28 -38 43 1 c36 0 50 8 100
52 32 28 66 54 76 58 9 4 11 7 5 7 -8 1 -13 14 -13 31 0 17 -3 30 -7 30 -5 0
-30 -13 -58 -28z"/>
<path d="M2640 3730 c-5 -35 -6 -35 -76 -50 -65 -14 -70 -17 -63 -35 4 -11 11
-45 14 -76 l6 -56 52 -12 c29 -6 67 -20 85 -31 26 -16 32 -17 32 -5 0 8 16 37
35 64 l36 49 -55 59 c-39 43 -55 69 -58 93 l-4 35 -4 -35z"/>
<path d="M1580 3679 c0 -5 5 -7 10 -4 6 3 10 8 10 11 0 2 -4 4 -10 4 -5 0 -10
-5 -10 -11z"/>
<path d="M1644 3663 c3 -22 41 -25 41 -3 0 8 -10 16 -22 18 -16 2 -21 -1 -19
-15z"/>
<path d="M1568 3653 c6 -2 18 -2 25 0 6 3 1 5 -13 5 -14 0 -19 -2 -12 -5z"/>
<path d="M1645 3600 c4 -6 -13 -11 -42 -11 l-48 -2 60 -7 c33 -5 64 -5 69 0
12 12 -2 30 -25 30 -11 0 -17 -4 -14 -10z"/>
<path d="M2844 3553 c-9 -3 -6 -22 7 -66 10 -34 19 -77 19 -94 0 -18 5 -33 11
-33 8 0 10 19 6 63 -7 74 -28 135 -43 130z"/>
<path d="M1650 3531 c0 -6 -19 -11 -44 -11 -25 0 -47 -3 -49 -7 -3 -5 25 -8
61 -7 51 0 67 4 67 15 0 7 -8 15 -17 17 -10 2 -18 -1 -18 -7z"/>
<path d="M2450 3456 l-45 -45 -64 15 c-35 8 -70 13 -77 10 -13 -5 -45 -65 -58
-108 -6 -21 -55 -24 -75 -5 -11 10 -13 8 -7 -13 3 -14 6 -29 6 -33 0 -5 5 -5
10 -2 6 4 8 11 5 16 -4 5 10 9 29 9 27 0 36 -4 36 -16 0 -9 23 -39 50 -66 28
-27 50 -45 50 -41 0 15 119 55 142 47 l23 -7 -21 19 c-22 19 -44 90 -44 141 0
19 14 41 47 75 26 26 45 48 42 48 -2 0 -24 -20 -49 -44z"/>
<path d="M1580 3464 c0 -8 -4 -13 -9 -10 -5 3 -11 0 -14 -7 -3 -9 13 -12 62
-11 50 0 66 4 66 15 0 8 -11 16 -24 17 -15 2 -21 0 -17 -7 5 -7 -4 -11 -24
-11 -25 0 -31 4 -26 15 3 8 1 15 -4 15 -6 0 -10 -7 -10 -16z"/>
<path d="M1580 3399 c0 -6 -6 -9 -13 -6 -7 3 -13 -3 -13 -12 0 -13 7 -16 22
-13 14 2 21 9 18 17 -4 8 4 15 18 18 21 4 20 4 -4 6 -16 0 -28 -4 -28 -10z"/>
<path d="M1643 3385 c0 -18 27 -29 40 -16 5 5 6 14 3 20 -10 16 -43 13 -43 -4z"/>
<path d="M2701 3374 c0 -11 3 -14 6 -6 3 7 2 16 -1 19 -3 4 -6 -2 -5 -13z"/>
<path d="M1608 3332 c18 -4 31 -11 30 -15 -5 -15 33 -30 45 -18 18 18 -8 35
-60 37 -39 2 -42 1 -15 -4z"/>
<path d="M2711 3319 c-1 -31 -100 -119 -135 -120 -20 0 -20 -1 -1 -8 12 -5 24
-25 32 -57 11 -44 11 -50 -5 -61 -58 -40 -60 -52 -2 -13 14 9 57 27 97 39 69
22 73 25 87 65 37 104 38 99 -13 116 -33 12 -47 23 -52 41 l-7 24 -1 -26z"/>
<path d="M1559 3303 c-11 -15 -11 -16 0 -6 7 6 20 9 29 6 10 -4 13 -2 8 5 -10
17 -21 15 -37 -5z"/>
<path d="M1593 3263 c9 -2 23 -2 30 0 6 3 -1 5 -18 5 -16 0 -22 -2 -12 -5z"/>
<path d="M1651 3252 c-8 -16 -7 -21 6 -26 26 -10 40 11 21 30 -15 15 -17 15
-27 -4z"/>
<path d="M1550 3254 c0 -2 9 -8 20 -14 11 -6 20 -7 20 -2 0 6 -9 12 -20 15
-11 3 -20 3 -20 1z"/>
<path d="M1647 3181 c-3 -12 1 -22 11 -26 23 -9 38 11 22 30 -17 20 -27 19
-33 -4z"/>
<path d="M1552 3166 c-1 -14 2 -16 7 -8 4 8 15 10 26 6 12 -5 16 -4 12 3 -4 6
-15 13 -25 15 -13 4 -18 -1 -20 -16z"/>
<path d="M2312 3130 c0 -14 2 -19 5 -12 2 6 2 18 0 25 -3 6 -5 1 -5 -13z"/>
<path d="M1649 3114 c-10 -13 -10 -17 2 -25 20 -12 26 -11 33 7 12 32 -12 45
-35 18z"/>
<path d="M1550 3114 c0 -9 40 -23 44 -15 3 5 -5 11 -19 13 -14 3 -25 4 -25 2z"/>
<path d="M2303 3079 c-29 -11 86 -59 154 -66 43 -3 54 -2 43 6 -8 6 -27 11
-41 11 -14 0 -51 13 -82 28 -35 18 -62 25 -74 21z"/>
<path d="M1647 3046 c-3 -8 1 -20 9 -27 13 -10 17 -10 25 2 5 8 7 19 6 24 -6
16 -34 17 -40 1z"/>
<path d="M2662 3051 c-11 -7 -11 -9 2 -14 10 -4 16 -1 16 8 0 17 -1 17 -18 6z"/>
<path d="M1553 3034 c0 -7 14 -9 36 -7 48 5 49 10 3 15 -24 2 -39 -1 -39 -8z"/>
<path d="M1642 2975 c-10 -12 -9 -16 7 -24 14 -8 22 -7 31 4 23 28 -13 48 -38
20z"/>
<path d="M1552 2956 c0 -12 2 -16 6 -9 4 6 18 13 32 15 24 4 23 4 -6 9 -25 4
-30 2 -32 -15z"/>
<path d="M1578 2913 c6 -2 18 -2 25 0 6 3 1 5 -13 5 -14 0 -19 -2 -12 -5z"/>
<path d="M1635 2910 l20 -9 -20 0 c-18 -1 -17 -3 5 -15 20 -10 28 -11 39 0 20
18 4 34 -32 33 -27 0 -29 -2 -12 -9z"/>
<path d="M1553 2895 c0 -6 12 -9 29 -7 15 2 28 5 28 7 0 2 -13 5 -28 7 -17 2
-29 -1 -29 -7z"/>
<path d="M1559 2848 c-9 -29 -5 -34 20 -30 l26 6 -25 7 c-18 5 -12 7 25 7 39
0 45 -2 25 -8 -21 -7 -22 -8 -4 -9 11 -1 25 -6 30 -11 13 -13 39 14 29 30 -5
8 -123 16 -126 8z"/>
<path d="M1580 2780 c0 -5 5 -10 11 -10 5 0 7 5 4 10 -3 6 -8 10 -11 10 -2 0
-4 -4 -4 -10z"/>
<path d="M1557 2773 c-8 -17 -1 -37 13 -40 13 -4 13 -3 0 7 -12 8 0 10 50 8
52 -2 65 0 65 12 0 10 -12 16 -35 17 -28 2 -31 1 -15 -7 15 -7 9 -9 -28 -9
-30 -1 -46 3 -42 9 3 6 4 10 1 10 -3 0 -7 -3 -9 -7z"/>
<path d="M1553 2695 c1 -18 8 -20 66 -20 52 0 66 3 66 15 0 8 -11 17 -24 18
-15 2 -21 0 -17 -7 5 -7 -8 -11 -38 -11 -26 0 -46 5 -49 13 -3 6 -5 3 -4 -8z"/>
<path d="M1645 2630 c6 -9 -6 -11 -42 -9 -29 3 -50 0 -50 -6 0 -6 29 -10 66
-10 52 0 66 3 66 15 0 8 -11 17 -24 18 -16 3 -21 0 -16 -8z"/>
<path d="M1645 2560 c6 -9 -6 -11 -42 -9 -29 3 -50 0 -50 -6 0 -6 29 -10 66
-10 52 0 66 3 66 15 0 8 -11 17 -24 18 -16 3 -21 0 -16 -8z"/>
<path d="M1580 2494 c0 -9 -6 -14 -13 -11 -8 3 -14 0 -14 -6 0 -8 23 -12 66
-12 52 0 66 3 66 15 0 8 -8 16 -17 18 -10 2 -18 -1 -18 -7 0 -6 -14 -11 -31
-11 -24 0 -30 4 -25 15 3 8 1 15 -4 15 -6 0 -10 -7 -10 -16z"/>
<path d="M1580 2429 c0 -6 -7 -9 -14 -6 -10 4 -13 1 -9 -9 3 -7 14 -14 24 -14
12 0 16 5 13 14 -4 9 3 16 18 19 21 4 20 4 -4 6 -16 0 -28 -4 -28 -10z"/>
<path d="M1645 2420 c3 -5 -4 -10 -17 -11 -18 -1 -15 -3 11 -11 22 -6 37 -6
43 0 14 14 1 32 -23 32 -11 0 -17 -4 -14 -10z"/>
<path d="M1580 2359 c0 -6 -6 -9 -13 -6 -7 3 -13 -3 -14 -13 -1 -13 4 -16 22
-12 14 2 22 9 19 17 -4 9 4 15 23 18 27 4 27 4 -4 6 -18 0 -33 -4 -33 -10z"/>
<path d="M1651 2352 c-8 -16 -7 -21 6 -26 26 -10 40 11 21 30 -15 15 -17 15
-27 -4z"/>
<path d="M1613 2293 c27 -3 37 -8 33 -18 -6 -17 24 -29 37 -16 19 19 -11 37
-60 38 -41 0 -42 0 -10 -4z"/>
<path d="M1550 2284 c0 -2 9 -8 20 -14 11 -6 20 -7 20 -2 0 6 -9 12 -20 15
-11 3 -20 3 -20 1z"/>
<path d="M1613 2223 c27 -3 37 -8 33 -18 -6 -16 24 -29 37 -16 5 5 7 17 4 25
-5 12 -19 16 -59 14 -45 -1 -47 -2 -15 -5z"/>
<path d="M2671 2214 c0 -11 3 -14 6 -6 3 7 2 16 -1 19 -3 4 -6 -2 -5 -13z"/>
<path d="M1550 2214 c0 -2 9 -8 20 -14 11 -6 20 -7 20 -2 0 6 -9 12 -20 15
-11 3 -20 3 -20 1z"/>
</g>
</svg>
